<?xml version="1.0" encoding="UTF-8"?>
<svg xmlns="http://www.w3.org/2000/svg" xmlns:xlink="http://www.w3.org/1999/xlink" width="338" height="129" viewBox="0 0 338 129">
<path fill-rule="evenodd" fill="rgb(25.1%, 87.8%, 81.6%)" fill-opacity="0.5" stroke-width="0.4" stroke-linecap="butt" stroke-linejoin="round" stroke="rgb(0%, 0%, 0%)" stroke-opacity="1" stroke-miterlimit="10" d="M 112 448 C 112 452.417969 108.417969 456 104 456 C 99.582031 456 96 452.417969 96 448 C 96 443.582031 99.582031 440 104 440 C 108.417969 440 112 443.582031 112 448 Z M 112 448 " transform="matrix(1, 0, 0, -1, -95, 512)"/>
<path fill-rule="evenodd" fill="rgb(25.1%, 87.8%, 81.6%)" fill-opacity="0.5" stroke-width="0.4" stroke-linecap="butt" stroke-linejoin="round" stroke="rgb(0%, 0%, 0%)" stroke-opacity="1" stroke-miterlimit="10" d="M 176 448 C 176 452.417969 172.417969 456 168 456 C 163.582031 456 160 452.417969 160 448 C 160 443.582031 163.582031 440 168 440 C 172.417969 440 176 443.582031 176 448 Z M 176 448 " transform="matrix(1, 0, 0, -1, -95, 512)"/>
<path fill-rule="evenodd" fill="rgb(25.1%, 87.8%, 81.6%)" fill-opacity="0.5" stroke-width="0.4" stroke-linecap="butt" stroke-linejoin="round" stroke="rgb(0%, 0%, 0%)" stroke-opacity="1" stroke-miterlimit="10" d="M 144.0625 503.25 C 144.0625 507.667969 140.480469 511.25 136.0625 511.25 C 131.644531 511.25 128.0625 507.667969 128.0625 503.25 C 128.0625 498.832031 131.644531 495.25 136.0625 495.25 C 140.480469 495.25 144.0625 498.832031 144.0625 503.25 Z M 144.0625 503.25 " transform="matrix(1, 0, 0, -1, -95, 512)"/>
<path fill-rule="evenodd" fill="rgb(25.1%, 87.8%, 81.6%)" fill-opacity="0.5" stroke-width="0.4" stroke-linecap="butt" stroke-linejoin="round" stroke="rgb(0%, 0%, 0%)" stroke-opacity="1" stroke-miterlimit="10" d="M 208 392 C 208 396.417969 204.417969 400 200 400 C 195.582031 400 192 396.417969 192 392 C 192 387.582031 195.582031 384 200 384 C 204.417969 384 208 387.582031 208 392 Z M 208 392 " transform="matrix(1, 0, 0, -1, -95, 512)"/>
<path fill-rule="evenodd" fill="rgb(25.1%, 87.8%, 81.6%)" fill-opacity="0.5" stroke-width="0.4" stroke-linecap="butt" stroke-linejoin="round" stroke="rgb(0%, 0%, 0%)" stroke-opacity="1" stroke-miterlimit="10" d="M 240 448 C 240 452.417969 236.417969 456 232 456 C 227.582031 456 224 452.417969 224 448 C 224 443.582031 227.582031 440 232 440 C 236.417969 440 240 443.582031 240 448 Z M 240 448 " transform="matrix(1, 0, 0, -1, -95, 512)"/>
<path fill="none" stroke-width="0.4" stroke-linecap="butt" stroke-linejoin="round" stroke="rgb(0%, 0%, 0%)" stroke-opacity="1" stroke-miterlimit="10" d="M 141.335938 497.234375 L 165.039063 455.433594 " transform="matrix(1, 0, 0, -1, -95, 512)"/>
<path fill="none" stroke-width="0.4" stroke-linecap="butt" stroke-linejoin="round" stroke="rgb(0%, 0%, 0%)" stroke-opacity="1" stroke-miterlimit="10" d="M 130.734375 497.285156 L 107.371094 455.253906 " transform="matrix(1, 0, 0, -1, -95, 512)"/>
<path fill="none" stroke-width="0.4" stroke-linecap="butt" stroke-linejoin="round" stroke="rgb(0%, 0%, 0%)" stroke-opacity="1" stroke-miterlimit="10" d="M 111.863281 446.535156 L 160.011719 447.539063 " transform="matrix(1, 0, 0, -1, -95, 512)"/>
<path fill="none" stroke-width="0.4" stroke-linecap="butt" stroke-linejoin="round" stroke="rgb(0%, 0%, 0%)" stroke-opacity="1" stroke-miterlimit="10" d="M 175.996094 448.191406 L 224.066406 449.035156 " transform="matrix(1, 0, 0, -1, -95, 512)"/>
<path fill="none" stroke-width="0.4" stroke-linecap="butt" stroke-linejoin="round" stroke="rgb(0%, 0%, 0%)" stroke-opacity="1" stroke-miterlimit="10" d="M 172.734375 441.550781 L 194.414063 397.726563 " transform="matrix(1, 0, 0, -1, -95, 512)"/>
<path fill="none" stroke-width="0.4" stroke-linecap="butt" stroke-linejoin="round" stroke="rgb(0%, 0%, 0%)" stroke-opacity="1" stroke-miterlimit="10" d="M 228.226563 440.945313 L 205.605469 397.707031 " transform="matrix(1, 0, 0, -1, -95, 512)"/>
<path fill-rule="evenodd" fill="rgb(25.1%, 87.8%, 81.6%)" fill-opacity="0.5" stroke-width="0.4" stroke-linecap="butt" stroke-linejoin="round" stroke="rgb(0%, 0%, 0%)" stroke-opacity="1" stroke-miterlimit="10" d="M 304 448 C 304 452.417969 300.417969 456 296 456 C 291.582031 456 288 452.417969 288 448 C 288 443.582031 291.582031 440 296 440 C 300.417969 440 304 443.582031 304 448 Z M 304 448 " transform="matrix(1, 0, 0, -1, -95, 512)"/>
<path fill-rule="evenodd" fill="rgb(25.1%, 87.8%, 81.6%)" fill-opacity="0.5" stroke-width="0.4" stroke-linecap="butt" stroke-linejoin="round" stroke="rgb(0%, 0%, 0%)" stroke-opacity="1" stroke-miterlimit="10" d="M 368 448 C 368 452.417969 364.417969 456 360 456 C 355.582031 456 352 452.417969 352 448 C 352 443.582031 355.582031 440 360 440 C 364.417969 440 368 443.582031 368 448 Z M 368 448 " transform="matrix(1, 0, 0, -1, -95, 512)"/>
<path fill-rule="evenodd" fill="rgb(25.1%, 87.8%, 81.6%)" fill-opacity="0.5" stroke-width="0.4" stroke-linecap="butt" stroke-linejoin="round" stroke="rgb(0%, 0%, 0%)" stroke-opacity="1" stroke-miterlimit="10" d="M 336.0625 503.25 C 336.0625 507.667969 332.480469 511.25 328.0625 511.25 C 323.644531 511.25 320.0625 507.667969 320.0625 503.25 C 320.0625 498.832031 323.644531 495.25 328.0625 495.25 C 332.480469 495.25 336.0625 498.832031 336.0625 503.25 Z M 336.0625 503.25 " transform="matrix(1, 0, 0, -1, -95, 512)"/>
<path fill-rule="evenodd" fill="rgb(25.1%, 87.8%, 81.6%)" fill-opacity="0.5" stroke-width="0.4" stroke-linecap="butt" stroke-linejoin="round" stroke="rgb(0%, 0%, 0%)" stroke-opacity="1" stroke-miterlimit="10" d="M 400 392 C 400 396.417969 396.417969 400 392 400 C 387.582031 400 384 396.417969 384 392 C 384 387.582031 387.582031 384 392 384 C 396.417969 384 400 387.582031 400 392 Z M 400 392 " transform="matrix(1, 0, 0, -1, -95, 512)"/>
<path fill-rule="evenodd" fill="rgb(25.1%, 87.8%, 81.6%)" fill-opacity="0.5" stroke-width="0.4" stroke-linecap="butt" stroke-linejoin="round" stroke="rgb(0%, 0%, 0%)" stroke-opacity="1" stroke-miterlimit="10" d="M 432 448 C 432 452.417969 428.417969 456 424 456 C 419.582031 456 416 452.417969 416 448 C 416 443.582031 419.582031 440 424 440 C 428.417969 440 432 443.582031 432 448 Z M 432 448 " transform="matrix(1, 0, 0, -1, -95, 512)"/>
<path fill="none" stroke-width="0.4" stroke-linecap="butt" stroke-linejoin="round" stroke="rgb(0%, 0%, 0%)" stroke-opacity="1" stroke-miterlimit="10" d="M 333.335938 497.234375 L 357.039063 455.433594 " transform="matrix(1, 0, 0, -1, -95, 512)"/>
<path fill-rule="evenodd" fill="rgb(0%, 0%, 0%)" fill-opacity="1" stroke-width="0.4" stroke-linecap="butt" stroke-linejoin="round" stroke="rgb(0%, 0%, 0%)" stroke-opacity="1" stroke-miterlimit="10" d="M 357.039063 455.433594 L 356.019531 460.601563 L 353.125 458.960938 Z M 357.039063 455.433594 " transform="matrix(1, 0, 0, -1, -95, 512)"/>
<path fill="none" stroke-width="0.4" stroke-linecap="butt" stroke-linejoin="round" stroke="rgb(0%, 0%, 100%)" stroke-opacity="1" stroke-dasharray="4" stroke-miterlimit="10" d="M 322.734375 497.285156 L 299.371094 455.253906 " transform="matrix(1, 0, 0, -1, -95, 512)"/>
<path fill-rule="evenodd" fill="rgb(0%, 0%, 100%)" fill-opacity="1" stroke-width="0.4" stroke-linecap="butt" stroke-linejoin="round" stroke="rgb(0%, 0%, 100%)" stroke-opacity="1" stroke-miterlimit="10" d="M 322.734375 497.285156 L 318.847656 493.722656 L 321.757813 492.105469 Z M 322.734375 497.285156 " transform="matrix(1, 0, 0, -1, -95, 512)"/>
<path fill="none" stroke-width="0.4" stroke-linecap="butt" stroke-linejoin="round" stroke="rgb(0%, 0%, 0%)" stroke-opacity="1" stroke-miterlimit="10" d="M 303.863281 446.535156 L 352.011719 447.539063 " transform="matrix(1, 0, 0, -1, -95, 512)"/>
<path fill-rule="evenodd" fill="rgb(0%, 0%, 0%)" fill-opacity="1" stroke-width="0.4" stroke-linecap="butt" stroke-linejoin="round" stroke="rgb(0%, 0%, 0%)" stroke-opacity="1" stroke-miterlimit="10" d="M 303.863281 446.535156 L 308.898438 444.972656 L 308.828125 448.304688 Z M 303.863281 446.535156 " transform="matrix(1, 0, 0, -1, -95, 512)"/>
<path fill="none" stroke-width="0.4" stroke-linecap="butt" stroke-linejoin="round" stroke="rgb(0%, 0%, 0%)" stroke-opacity="1" stroke-miterlimit="10" d="M 367.996094 448.191406 L 416.066406 449.035156 " transform="matrix(1, 0, 0, -1, -95, 512)"/>
<path fill-rule="evenodd" fill="rgb(0%, 0%, 0%)" fill-opacity="1" stroke-width="0.4" stroke-linecap="butt" stroke-linejoin="round" stroke="rgb(0%, 0%, 0%)" stroke-opacity="1" stroke-miterlimit="10" d="M 416.066406 449.035156 L 411.039063 450.613281 L 411.097656 447.28125 Z M 416.066406 449.035156 " transform="matrix(1, 0, 0, -1, -95, 512)"/>
<path fill="none" stroke-width="0.4" stroke-linecap="butt" stroke-linejoin="round" stroke="rgb(0%, 0%, 100%)" stroke-opacity="1" stroke-dasharray="4" stroke-miterlimit="10" d="M 364.734375 441.550781 L 386.414063 397.726563 " transform="matrix(1, 0, 0, -1, -95, 512)"/>
<path fill-rule="evenodd" fill="rgb(0%, 0%, 100%)" fill-opacity="1" stroke-width="0.4" stroke-linecap="butt" stroke-linejoin="round" stroke="rgb(0%, 0%, 100%)" stroke-opacity="1" stroke-miterlimit="10" d="M 364.734375 441.550781 L 365.457031 436.332031 L 368.445313 437.808594 Z M 364.734375 441.550781 " transform="matrix(1, 0, 0, -1, -95, 512)"/>
<path fill="none" stroke-width="0.4" stroke-linecap="butt" stroke-linejoin="round" stroke="rgb(0%, 0%, 0%)" stroke-opacity="1" stroke-miterlimit="10" d="M 420.226563 440.945313 L 397.605469 397.707031 " transform="matrix(1, 0, 0, -1, -95, 512)"/>
<path fill-rule="evenodd" fill="rgb(0%, 0%, 0%)" fill-opacity="1" stroke-width="0.4" stroke-linecap="butt" stroke-linejoin="round" stroke="rgb(0%, 0%, 0%)" stroke-opacity="1" stroke-miterlimit="10" d="M 397.605469 397.707031 L 401.398438 401.367188 L 398.449219 402.910156 Z M 397.605469 397.707031 " transform="matrix(1, 0, 0, -1, -95, 512)"/>
</svg>