<?xml version="1.0" encoding="UTF-8"?>
<svg xmlns="http://www.w3.org/2000/svg" xmlns:xlink="http://www.w3.org/1999/xlink" width="130" height="130" viewBox="0 0 130 130">
<defs>
<g>
<g id="glyph-0-0">
<path d="M 6.4375 -6.921875 C 6.4375 -6.953125 6.40625 -7.03125 6.3125 -7.03125 C 6.265625 -7.03125 6.265625 -7.015625 6.140625 -6.875 L 5.65625 -6.3125 C 5.40625 -6.78125 4.890625 -7.03125 4.234375 -7.03125 C 2.96875 -7.03125 1.78125 -5.875 1.78125 -4.671875 C 1.78125 -3.875 2.296875 -3.40625 2.8125 -3.265625 L 3.875 -2.984375 C 4.25 -2.890625 4.796875 -2.734375 4.796875 -1.921875 C 4.796875 -1.03125 3.984375 -0.09375 3 -0.09375 C 2.359375 -0.09375 1.25 -0.3125 1.25 -1.546875 C 1.25 -1.78125 1.3125 -2.03125 1.3125 -2.078125 C 1.328125 -2.125 1.328125 -2.140625 1.328125 -2.15625 C 1.328125 -2.25 1.265625 -2.265625 1.21875 -2.265625 C 1.171875 -2.265625 1.140625 -2.25 1.109375 -2.21875 C 1.078125 -2.1875 0.515625 0.09375 0.515625 0.125 C 0.515625 0.171875 0.5625 0.21875 0.625 0.21875 C 0.671875 0.21875 0.6875 0.203125 0.8125 0.0625 L 1.296875 -0.5 C 1.71875 0.078125 2.40625 0.21875 2.984375 0.21875 C 4.34375 0.21875 5.515625 -1.109375 5.515625 -2.34375 C 5.515625 -3.03125 5.171875 -3.375 5.03125 -3.515625 C 4.796875 -3.734375 4.640625 -3.78125 3.765625 -4 C 3.53125 -4.0625 3.1875 -4.171875 3.09375 -4.1875 C 2.828125 -4.28125 2.484375 -4.5625 2.484375 -5.09375 C 2.484375 -5.90625 3.28125 -6.75 4.234375 -6.75 C 5.046875 -6.75 5.65625 -6.3125 5.65625 -5.203125 C 5.65625 -4.890625 5.625 -4.703125 5.625 -4.640625 C 5.625 -4.640625 5.625 -4.546875 5.734375 -4.546875 C 5.84375 -4.546875 5.859375 -4.578125 5.890625 -4.75 Z M 6.4375 -6.921875 "/>
</g>
<g id="glyph-0-1">
<path d="M 4.25 -6.046875 C 4.328125 -6.328125 4.359375 -6.390625 4.484375 -6.421875 C 4.578125 -6.4375 4.90625 -6.4375 5.109375 -6.4375 C 6.125 -6.4375 6.5625 -6.40625 6.5625 -5.625 C 6.5625 -5.46875 6.53125 -5.078125 6.484375 -4.828125 C 6.484375 -4.78125 6.453125 -4.671875 6.453125 -4.640625 C 6.453125 -4.578125 6.484375 -4.5 6.578125 -4.5 C 6.6875 -4.5 6.703125 -4.578125 6.734375 -4.734375 L 7 -6.46875 C 7.015625 -6.515625 7.015625 -6.609375 7.015625 -6.640625 C 7.015625 -6.75 6.921875 -6.75 6.75 -6.75 L 1.21875 -6.75 C 0.984375 -6.75 0.96875 -6.734375 0.890625 -6.546875 L 0.296875 -4.796875 C 0.296875 -4.78125 0.234375 -4.640625 0.234375 -4.609375 C 0.234375 -4.5625 0.296875 -4.5 0.359375 -4.5 C 0.453125 -4.5 0.46875 -4.5625 0.53125 -4.71875 C 1.0625 -6.265625 1.328125 -6.4375 2.796875 -6.4375 L 3.1875 -6.4375 C 3.46875 -6.4375 3.46875 -6.40625 3.46875 -6.3125 C 3.46875 -6.265625 3.4375 -6.140625 3.421875 -6.109375 L 2.09375 -0.78125 C 2 -0.421875 1.96875 -0.3125 0.90625 -0.3125 C 0.546875 -0.3125 0.484375 -0.3125 0.484375 -0.125 C 0.484375 0 0.59375 0 0.65625 0 C 0.921875 0 1.203125 -0.015625 1.46875 -0.015625 C 1.75 -0.015625 2.046875 -0.03125 2.328125 -0.03125 C 2.609375 -0.03125 2.875 -0.015625 3.15625 -0.015625 C 3.4375 -0.015625 3.734375 0 4.015625 0 C 4.109375 0 4.234375 0 4.234375 -0.203125 C 4.234375 -0.3125 4.15625 -0.3125 3.890625 -0.3125 C 3.65625 -0.3125 3.515625 -0.3125 3.265625 -0.328125 C 2.96875 -0.359375 2.890625 -0.390625 2.890625 -0.546875 C 2.890625 -0.5625 2.890625 -0.609375 2.9375 -0.75 Z M 4.25 -6.046875 "/>
</g>
<g id="glyph-1-0">
<path d="M 2.9375 -6.375 C 2.9375 -6.625 2.9375 -6.640625 2.703125 -6.640625 C 2.078125 -6 1.203125 -6 0.890625 -6 L 0.890625 -5.6875 C 1.09375 -5.6875 1.671875 -5.6875 2.1875 -5.953125 L 2.1875 -0.78125 C 2.1875 -0.421875 2.15625 -0.3125 1.265625 -0.3125 L 0.953125 -0.3125 L 0.953125 0 C 1.296875 -0.03125 2.15625 -0.03125 2.5625 -0.03125 C 2.953125 -0.03125 3.828125 -0.03125 4.171875 0 L 4.171875 -0.3125 L 3.859375 -0.3125 C 2.953125 -0.3125 2.9375 -0.421875 2.9375 -0.78125 Z M 2.9375 -6.375 "/>
</g>
<g id="glyph-1-1">
<path d="M 1.265625 -0.765625 L 2.328125 -1.796875 C 3.875 -3.171875 4.46875 -3.703125 4.46875 -4.703125 C 4.46875 -5.84375 3.578125 -6.640625 2.359375 -6.640625 C 1.234375 -6.640625 0.5 -5.71875 0.5 -4.828125 C 0.5 -4.28125 1 -4.28125 1.03125 -4.28125 C 1.203125 -4.28125 1.546875 -4.390625 1.546875 -4.8125 C 1.546875 -5.0625 1.359375 -5.328125 1.015625 -5.328125 C 0.9375 -5.328125 0.921875 -5.328125 0.890625 -5.3125 C 1.109375 -5.96875 1.65625 -6.328125 2.234375 -6.328125 C 3.140625 -6.328125 3.5625 -5.515625 3.5625 -4.703125 C 3.5625 -3.90625 3.078125 -3.125 2.515625 -2.5 L 0.609375 -0.375 C 0.5 -0.265625 0.5 -0.234375 0.5 0 L 4.203125 0 L 4.46875 -1.734375 L 4.234375 -1.734375 C 4.171875 -1.4375 4.109375 -1 4 -0.84375 C 3.9375 -0.765625 3.28125 -0.765625 3.0625 -0.765625 Z M 1.265625 -0.765625 "/>
</g>
<g id="glyph-1-2">
<path d="M 2.890625 -3.515625 C 3.703125 -3.78125 4.28125 -4.46875 4.28125 -5.265625 C 4.28125 -6.078125 3.40625 -6.640625 2.453125 -6.640625 C 1.453125 -6.640625 0.6875 -6.046875 0.6875 -5.28125 C 0.6875 -4.953125 0.90625 -4.765625 1.203125 -4.765625 C 1.5 -4.765625 1.703125 -4.984375 1.703125 -5.28125 C 1.703125 -5.765625 1.234375 -5.765625 1.09375 -5.765625 C 1.390625 -6.265625 2.046875 -6.390625 2.40625 -6.390625 C 2.828125 -6.390625 3.375 -6.171875 3.375 -5.28125 C 3.375 -5.15625 3.34375 -4.578125 3.09375 -4.140625 C 2.796875 -3.65625 2.453125 -3.625 2.203125 -3.625 C 2.125 -3.609375 1.890625 -3.59375 1.8125 -3.59375 C 1.734375 -3.578125 1.671875 -3.5625 1.671875 -3.46875 C 1.671875 -3.359375 1.734375 -3.359375 1.90625 -3.359375 L 2.34375 -3.359375 C 3.15625 -3.359375 3.53125 -2.6875 3.53125 -1.703125 C 3.53125 -0.34375 2.84375 -0.0625 2.40625 -0.0625 C 1.96875 -0.0625 1.21875 -0.234375 0.875 -0.8125 C 1.21875 -0.765625 1.53125 -0.984375 1.53125 -1.359375 C 1.53125 -1.71875 1.265625 -1.921875 0.984375 -1.921875 C 0.734375 -1.921875 0.421875 -1.78125 0.421875 -1.34375 C 0.421875 -0.4375 1.34375 0.21875 2.4375 0.21875 C 3.65625 0.21875 4.5625 -0.6875 4.5625 -1.703125 C 4.5625 -2.515625 3.921875 -3.296875 2.890625 -3.515625 Z M 2.890625 -3.515625 "/>
</g>
<g id="glyph-2-0">
<path d="M 2.5 -5.078125 C 2.5 -5.296875 2.484375 -5.296875 2.265625 -5.296875 C 1.9375 -4.984375 1.515625 -4.796875 0.765625 -4.796875 L 0.765625 -4.53125 C 0.984375 -4.53125 1.40625 -4.53125 1.875 -4.734375 L 1.875 -0.65625 C 1.875 -0.359375 1.84375 -0.265625 1.09375 -0.265625 L 0.8125 -0.265625 L 0.8125 0 C 1.140625 -0.03125 1.828125 -0.03125 2.1875 -0.03125 C 2.546875 -0.03125 3.234375 -0.03125 3.5625 0 L 3.5625 -0.265625 L 3.28125 -0.265625 C 2.53125 -0.265625 2.5 -0.359375 2.5 -0.65625 Z M 2.5 -5.078125 "/>
</g>
<g id="glyph-2-1">
<path d="M 3.140625 -5.15625 C 3.140625 -5.3125 3.140625 -5.375 2.96875 -5.375 C 2.875 -5.375 2.859375 -5.375 2.78125 -5.265625 L 0.234375 -1.5625 L 0.234375 -1.3125 L 2.484375 -1.3125 L 2.484375 -0.640625 C 2.484375 -0.34375 2.46875 -0.265625 1.84375 -0.265625 L 1.671875 -0.265625 L 1.671875 0 C 2.34375 -0.03125 2.359375 -0.03125 2.8125 -0.03125 C 3.265625 -0.03125 3.28125 -0.03125 3.953125 0 L 3.953125 -0.265625 L 3.78125 -0.265625 C 3.15625 -0.265625 3.140625 -0.34375 3.140625 -0.640625 L 3.140625 -1.3125 L 3.984375 -1.3125 L 3.984375 -1.5625 L 3.140625 -1.5625 Z M 2.546875 -4.515625 L 2.546875 -1.5625 L 0.515625 -1.5625 Z M 2.546875 -4.515625 "/>
</g>
<g id="glyph-2-2">
<path d="M 1.109375 -4.484375 C 1.21875 -4.453125 1.53125 -4.359375 1.875 -4.359375 C 2.875 -4.359375 3.46875 -5.0625 3.46875 -5.1875 C 3.46875 -5.28125 3.421875 -5.296875 3.375 -5.296875 C 3.359375 -5.296875 3.34375 -5.296875 3.28125 -5.265625 C 2.96875 -5.140625 2.59375 -5.046875 2.171875 -5.046875 C 1.703125 -5.046875 1.3125 -5.15625 1.0625 -5.265625 C 0.984375 -5.296875 0.96875 -5.296875 0.953125 -5.296875 C 0.859375 -5.296875 0.859375 -5.21875 0.859375 -5.0625 L 0.859375 -2.734375 C 0.859375 -2.59375 0.859375 -2.5 0.984375 -2.5 C 1.046875 -2.5 1.0625 -2.53125 1.109375 -2.59375 C 1.203125 -2.703125 1.5 -3.109375 2.1875 -3.109375 C 2.625 -3.109375 2.84375 -2.75 2.921875 -2.59375 C 3.046875 -2.3125 3.0625 -1.9375 3.0625 -1.640625 C 3.0625 -1.34375 3.0625 -0.90625 2.84375 -0.5625 C 2.6875 -0.3125 2.359375 -0.078125 1.9375 -0.078125 C 1.421875 -0.078125 0.921875 -0.390625 0.734375 -0.921875 C 0.75 -0.90625 0.8125 -0.90625 0.8125 -0.90625 C 1.03125 -0.90625 1.21875 -1.046875 1.21875 -1.296875 C 1.21875 -1.59375 0.984375 -1.703125 0.828125 -1.703125 C 0.671875 -1.703125 0.421875 -1.625 0.421875 -1.28125 C 0.421875 -0.5625 1.046875 0.171875 1.953125 0.171875 C 2.953125 0.171875 3.796875 -0.609375 3.796875 -1.59375 C 3.796875 -2.515625 3.125 -3.34375 2.1875 -3.34375 C 1.796875 -3.34375 1.421875 -3.21875 1.109375 -2.9375 Z M 1.109375 -4.484375 "/>
</g>
<g id="glyph-3-0">
<path d="M 4.03125 -1.90625 C 3.65625 -2.34375 3.546875 -2.453125 3.28125 -2.640625 C 2.859375 -2.953125 2.40625 -3.078125 2.03125 -3.078125 C 1.15625 -3.078125 0.53125 -2.328125 0.53125 -1.5 C 0.53125 -0.6875 1.140625 0.0625 2 0.0625 C 2.96875 0.0625 3.65625 -0.71875 3.90625 -1.09375 C 4.265625 -0.65625 4.390625 -0.546875 4.640625 -0.359375 C 5.078125 -0.046875 5.515625 0.0625 5.90625 0.0625 C 6.765625 0.0625 7.390625 -0.671875 7.390625 -1.5 C 7.390625 -2.328125 6.796875 -3.078125 5.921875 -3.078125 C 4.953125 -3.078125 4.28125 -2.28125 4.03125 -1.90625 Z M 4.25 -1.65625 C 4.53125 -2.109375 5.140625 -2.8125 5.984375 -2.8125 C 6.703125 -2.8125 7.203125 -2.171875 7.203125 -1.5 C 7.203125 -0.84375 6.65625 -0.3125 6.015625 -0.3125 C 5.359375 -0.3125 4.921875 -0.84375 4.25 -1.65625 Z M 3.671875 -1.359375 C 3.40625 -0.90625 2.796875 -0.1875 1.9375 -0.1875 C 1.21875 -0.1875 0.734375 -0.828125 0.734375 -1.5 C 0.734375 -2.171875 1.28125 -2.6875 1.921875 -2.6875 C 2.5625 -2.6875 3.015625 -2.15625 3.671875 -1.359375 Z M 3.671875 -1.359375 "/>
</g>
<g id="glyph-4-0">
<path d="M 3.6875 -1.140625 L 3.6875 -1.390625 L 2.90625 -1.390625 L 2.90625 -4.5 C 2.90625 -4.640625 2.90625 -4.703125 2.765625 -4.703125 C 2.671875 -4.703125 2.640625 -4.703125 2.578125 -4.59375 L 0.265625 -1.390625 L 0.265625 -1.140625 L 2.328125 -1.140625 L 2.328125 -0.578125 C 2.328125 -0.328125 2.328125 -0.25 1.75 -0.25 L 1.5625 -0.25 L 1.5625 0 C 1.921875 -0.015625 2.359375 -0.03125 2.609375 -0.03125 C 2.875 -0.03125 3.3125 -0.015625 3.671875 0 L 3.671875 -0.25 L 3.484375 -0.25 C 2.90625 -0.25 2.90625 -0.328125 2.90625 -0.578125 L 2.90625 -1.140625 Z M 2.375 -3.9375 L 2.375 -1.390625 L 0.53125 -1.390625 Z M 2.375 -3.9375 "/>
</g>
<g id="glyph-4-1">
<path d="M 1.90625 -2.328125 C 2.453125 -2.328125 2.84375 -1.953125 2.84375 -1.203125 C 2.84375 -0.34375 2.328125 -0.078125 1.9375 -0.078125 C 1.65625 -0.078125 1.03125 -0.15625 0.75 -0.578125 C 1.078125 -0.578125 1.15625 -0.8125 1.15625 -0.96875 C 1.15625 -1.1875 0.984375 -1.34375 0.765625 -1.34375 C 0.578125 -1.34375 0.375 -1.21875 0.375 -0.9375 C 0.375 -0.28125 1.09375 0.140625 1.9375 0.140625 C 2.90625 0.140625 3.578125 -0.515625 3.578125 -1.203125 C 3.578125 -1.75 3.140625 -2.296875 2.375 -2.453125 C 3.09375 -2.71875 3.359375 -3.234375 3.359375 -3.671875 C 3.359375 -4.21875 2.734375 -4.625 1.953125 -4.625 C 1.1875 -4.625 0.59375 -4.25 0.59375 -3.6875 C 0.59375 -3.453125 0.75 -3.328125 0.953125 -3.328125 C 1.171875 -3.328125 1.3125 -3.484375 1.3125 -3.671875 C 1.3125 -3.875 1.171875 -4.03125 0.953125 -4.046875 C 1.203125 -4.34375 1.671875 -4.421875 1.9375 -4.421875 C 2.25 -4.421875 2.6875 -4.265625 2.6875 -3.671875 C 2.6875 -3.375 2.59375 -3.046875 2.40625 -2.84375 C 2.1875 -2.578125 1.984375 -2.5625 1.640625 -2.53125 C 1.46875 -2.515625 1.453125 -2.515625 1.421875 -2.515625 C 1.40625 -2.515625 1.34375 -2.5 1.34375 -2.421875 C 1.34375 -2.328125 1.40625 -2.328125 1.53125 -2.328125 Z M 1.90625 -2.328125 "/>
</g>
<g id="glyph-4-2">
<path d="M 3.59375 -2.21875 C 3.59375 -2.984375 3.5 -3.546875 3.1875 -4.03125 C 2.96875 -4.34375 2.53125 -4.625 1.984375 -4.625 C 0.359375 -4.625 0.359375 -2.71875 0.359375 -2.21875 C 0.359375 -1.71875 0.359375 0.140625 1.984375 0.140625 C 3.59375 0.140625 3.59375 -1.71875 3.59375 -2.21875 Z M 1.984375 -0.0625 C 1.65625 -0.0625 1.234375 -0.25 1.09375 -0.8125 C 1 -1.21875 1 -1.796875 1 -2.3125 C 1 -2.828125 1 -3.359375 1.09375 -3.734375 C 1.25 -4.28125 1.6875 -4.4375 1.984375 -4.4375 C 2.359375 -4.4375 2.71875 -4.203125 2.84375 -3.796875 C 2.953125 -3.421875 2.96875 -2.921875 2.96875 -2.3125 C 2.96875 -1.796875 2.96875 -1.28125 2.875 -0.84375 C 2.734375 -0.203125 2.265625 -0.0625 1.984375 -0.0625 Z M 1.984375 -0.0625 "/>
</g>
<g id="glyph-4-3">
<path d="M 1.078125 -3.890625 C 1.4375 -3.796875 1.640625 -3.796875 1.75 -3.796875 C 2.671875 -3.796875 3.21875 -4.421875 3.21875 -4.53125 C 3.21875 -4.609375 3.171875 -4.625 3.140625 -4.625 C 3.125 -4.625 3.109375 -4.625 3.078125 -4.609375 C 2.90625 -4.546875 2.546875 -4.40625 2.03125 -4.40625 C 1.828125 -4.40625 1.46875 -4.421875 1.015625 -4.59375 C 0.9375 -4.625 0.921875 -4.625 0.921875 -4.625 C 0.828125 -4.625 0.828125 -4.546875 0.828125 -4.4375 L 0.828125 -2.390625 C 0.828125 -2.265625 0.828125 -2.1875 0.9375 -2.1875 C 1 -2.1875 1.015625 -2.1875 1.078125 -2.28125 C 1.375 -2.65625 1.8125 -2.71875 2.046875 -2.71875 C 2.46875 -2.71875 2.65625 -2.390625 2.6875 -2.328125 C 2.8125 -2.09375 2.859375 -1.828125 2.859375 -1.421875 C 2.859375 -1.21875 2.859375 -0.8125 2.640625 -0.5 C 2.46875 -0.25 2.171875 -0.078125 1.828125 -0.078125 C 1.375 -0.078125 0.90625 -0.328125 0.734375 -0.796875 C 1 -0.78125 1.140625 -0.953125 1.140625 -1.140625 C 1.140625 -1.4375 0.875 -1.484375 0.78125 -1.484375 C 0.78125 -1.484375 0.4375 -1.484375 0.4375 -1.109375 C 0.4375 -0.484375 1.015625 0.140625 1.84375 0.140625 C 2.734375 0.140625 3.515625 -0.515625 3.515625 -1.40625 C 3.515625 -2.1875 2.921875 -2.90625 2.0625 -2.90625 C 1.75 -2.90625 1.390625 -2.84375 1.078125 -2.578125 Z M 1.078125 -3.890625 "/>
</g>
</g>
<clipPath id="clip-0">
<path clip-rule="nonzero" d="M 62 5.59375 L 68.34375 5.59375 L 68.34375 12.402344 L 62 12.402344 Z M 62 5.59375 "/>
</clipPath>
<clipPath id="clip-1">
<path clip-rule="nonzero" d="M 61.398438 117.59375 L 68.605469 117.59375 L 68.605469 124.402344 L 61.398438 124.402344 Z M 61.398438 117.59375 "/>
</clipPath>
<clipPath id="clip-2">
<path clip-rule="nonzero" d="M 7 61.789063 L 11 61.789063 L 11 68.210938 L 7 68.210938 Z M 7 61.789063 "/>
</clipPath>
<clipPath id="clip-3">
<path clip-rule="nonzero" d="M 63 61.789063 L 67 61.789063 L 67 68.210938 L 63 68.210938 Z M 63 61.789063 "/>
</clipPath>
<clipPath id="clip-4">
<path clip-rule="nonzero" d="M 118.507813 61.789063 L 123.488281 61.789063 L 123.488281 68.210938 L 118.507813 68.210938 Z M 118.507813 61.789063 "/>
</clipPath>
<clipPath id="clip-5">
<path clip-rule="nonzero" d="M 45.199219 32.945313 L 49 32.945313 L 49 38.082031 L 45.199219 38.082031 Z M 45.199219 32.945313 "/>
</clipPath>
<clipPath id="clip-6">
<path clip-rule="nonzero" d="M 60 37.703125 L 63 37.703125 L 63 42.839844 L 60 42.839844 Z M 60 37.703125 "/>
</clipPath>
<clipPath id="clip-7">
<path clip-rule="nonzero" d="M 82.308594 35.085938 L 86.542969 35.085938 L 86.542969 40.222656 L 82.308594 40.222656 Z M 82.308594 35.085938 "/>
</clipPath>
<clipPath id="clip-8">
<path clip-rule="nonzero" d="M 34.257813 80.046875 L 38.492188 80.046875 L 38.492188 85.183594 L 34.257813 85.183594 Z M 34.257813 80.046875 "/>
</clipPath>
<clipPath id="clip-9">
<path clip-rule="nonzero" d="M 60 84.804688 L 63.707031 84.804688 L 63.707031 89.941406 L 60 89.941406 Z M 60 84.804688 "/>
</clipPath>
<clipPath id="clip-10">
<path clip-rule="nonzero" d="M 93.488281 79.808594 L 97.722656 79.808594 L 97.722656 84.945313 L 93.488281 84.945313 Z M 93.488281 79.808594 "/>
</clipPath>
<clipPath id="clip-11">
<path clip-rule="nonzero" d="M 13.085938 83.367188 L 21 83.367188 L 21 86.371094 L 13.085938 86.371094 Z M 13.085938 83.367188 "/>
</clipPath>
<clipPath id="clip-12">
<path clip-rule="nonzero" d="M 45 72.664063 L 52.664063 72.664063 L 52.664063 75.667969 L 45 75.667969 Z M 45 72.664063 "/>
</clipPath>
<clipPath id="clip-13">
<path clip-rule="nonzero" d="M 80 75.042969 L 87.632813 75.042969 L 87.632813 78.046875 L 80 78.046875 Z M 80 75.042969 "/>
</clipPath>
<clipPath id="clip-14">
<path clip-rule="nonzero" d="M 112.28125 79.085938 L 120 79.085938 L 120 82.089844 L 112.28125 82.089844 Z M 112.28125 79.085938 "/>
</clipPath>
<clipPath id="clip-15">
<path clip-rule="nonzero" d="M 41.394531 108.523438 L 45.367188 108.523438 L 45.367188 113.015625 L 41.394531 113.015625 Z M 41.394531 108.523438 "/>
</clipPath>
<clipPath id="clip-16">
<path clip-rule="nonzero" d="M 83.496094 109.472656 L 87.46875 109.472656 L 87.46875 113.964844 L 83.496094 113.964844 Z M 83.496094 109.472656 "/>
</clipPath>
<clipPath id="clip-17">
<path clip-rule="nonzero" d="M 13 43.882813 L 20.550781 43.882813 L 20.550781 46.886719 L 13 46.886719 Z M 13 43.882813 "/>
</clipPath>
<clipPath id="clip-18">
<path clip-rule="nonzero" d="M 43.296875 52.445313 L 51 52.445313 L 51 55.449219 L 43.296875 55.449219 Z M 43.296875 52.445313 "/>
</clipPath>
<clipPath id="clip-19">
<path clip-rule="nonzero" d="M 79.214844 52.921875 L 87 52.921875 L 87 55.925781 L 79.214844 55.925781 Z M 79.214844 52.921875 "/>
</clipPath>
<clipPath id="clip-20">
<path clip-rule="nonzero" d="M 109 40.789063 L 116.890625 40.789063 L 116.890625 43.792969 L 109 43.792969 Z M 109 40.789063 "/>
</clipPath>
<clipPath id="clip-21">
<path clip-rule="nonzero" d="M 43.058594 15.277344 L 47 15.277344 L 47 19.769531 L 43.058594 19.769531 Z M 43.058594 15.277344 "/>
</clipPath>
<clipPath id="clip-22">
<path clip-rule="nonzero" d="M 83.019531 15.039063 L 86.992188 15.039063 L 86.992188 19.53125 L 83.019531 19.53125 Z M 83.019531 15.039063 "/>
</clipPath>
</defs>
<path fill-rule="evenodd" fill="rgb(25.1%, 87.8%, 81.6%)" fill-opacity="0.5" stroke-width="0.4" stroke-linecap="butt" stroke-linejoin="round" stroke="rgb(0%, 0%, 0%)" stroke-opacity="1" stroke-miterlimit="10" d="M 280 800 C 280 804.417969 276.417969 808 272 808 C 267.582031 808 264 804.417969 264 800 C 264 795.582031 267.582031 792 272 792 C 276.417969 792 280 795.582031 280 800 Z M 280 800 " transform="matrix(1, 0, 0, -1, -207, 809)"/>
<path fill-rule="evenodd" fill="rgb(25.1%, 87.8%, 81.6%)" fill-opacity="0.5" stroke-width="0.4" stroke-linecap="butt" stroke-linejoin="round" stroke="rgb(0%, 0%, 0%)" stroke-opacity="1" stroke-miterlimit="10" d="M 224 744 C 224 748.417969 220.417969 752 216 752 C 211.582031 752 208 748.417969 208 744 C 208 739.582031 211.582031 736 216 736 C 220.417969 736 224 739.582031 224 744 Z M 224 744 " transform="matrix(1, 0, 0, -1, -207, 809)"/>
<path fill-rule="evenodd" fill="rgb(25.1%, 87.8%, 81.6%)" fill-opacity="0.5" stroke-width="0.4" stroke-linecap="butt" stroke-linejoin="round" stroke="rgb(0%, 0%, 0%)" stroke-opacity="1" stroke-miterlimit="10" d="M 280 744 C 280 748.417969 276.417969 752 272 752 C 267.582031 752 264 748.417969 264 744 C 264 739.582031 267.582031 736 272 736 C 276.417969 736 280 739.582031 280 744 Z M 280 744 " transform="matrix(1, 0, 0, -1, -207, 809)"/>
<path fill-rule="evenodd" fill="rgb(25.1%, 87.8%, 81.6%)" fill-opacity="0.5" stroke-width="0.4" stroke-linecap="butt" stroke-linejoin="round" stroke="rgb(0%, 0%, 0%)" stroke-opacity="1" stroke-miterlimit="10" d="M 336 744 C 336 748.417969 332.417969 752 328 752 C 323.582031 752 320 748.417969 320 744 C 320 739.582031 323.582031 736 328 736 C 332.417969 736 336 739.582031 336 744 Z M 336 744 " transform="matrix(1, 0, 0, -1, -207, 809)"/>
<path fill-rule="evenodd" fill="rgb(25.1%, 87.8%, 81.6%)" fill-opacity="0.5" stroke-width="0.4" stroke-linecap="butt" stroke-linejoin="round" stroke="rgb(0%, 0%, 0%)" stroke-opacity="1" stroke-miterlimit="10" d="M 280 688 C 280 692.417969 276.417969 696 272 696 C 267.582031 696 264 692.417969 264 688 C 264 683.582031 267.582031 680 272 680 C 276.417969 680 280 683.582031 280 688 Z M 280 688 " transform="matrix(1, 0, 0, -1, -207, 809)"/>
<path fill-rule="evenodd" fill="rgb(100%, 54.9%, 0%)" fill-opacity="0.5" stroke-width="0.4" stroke-linecap="butt" stroke-linejoin="round" stroke="rgb(0%, 0%, 0%)" stroke-opacity="1" stroke-miterlimit="10" d="M 245.65625 776 C 245.65625 779.125 243.125 781.65625 240 781.65625 C 236.875 781.65625 234.34375 779.125 234.34375 776 C 234.34375 772.875 236.875 770.34375 240 770.34375 C 243.125 770.34375 245.65625 772.875 245.65625 776 Z M 245.65625 776 " transform="matrix(1, 0, 0, -1, -207, 809)"/>
<g clip-path="url(#clip-0)">
<g fill="rgb(0%, 0%, 0%)" fill-opacity="1">
<use xlink:href="#glyph-0-0" x="61.6585" y="12.404"/>
</g>
</g>
<g clip-path="url(#clip-1)">
<g fill="rgb(0%, 0%, 0%)" fill-opacity="1">
<use xlink:href="#glyph-0-1" x="61.397" y="124.404"/>
</g>
</g>
<path fill-rule="evenodd" fill="rgb(100%, 54.9%, 0%)" fill-opacity="0.5" stroke-width="0.4" stroke-linecap="butt" stroke-linejoin="round" stroke="rgb(0%, 0%, 0%)" stroke-opacity="1" stroke-miterlimit="10" d="M 309.65625 776 C 309.65625 779.125 307.125 781.65625 304 781.65625 C 300.875 781.65625 298.34375 779.125 298.34375 776 C 298.34375 772.875 300.875 770.34375 304 770.34375 C 307.125 770.34375 309.65625 772.875 309.65625 776 Z M 309.65625 776 " transform="matrix(1, 0, 0, -1, -207, 809)"/>
<path fill-rule="evenodd" fill="rgb(100%, 54.9%, 0%)" fill-opacity="0.5" stroke-width="0.4" stroke-linecap="butt" stroke-linejoin="round" stroke="rgb(0%, 0%, 0%)" stroke-opacity="1" stroke-miterlimit="10" d="M 309.65625 712 C 309.65625 715.125 307.125 717.65625 304 717.65625 C 300.875 717.65625 298.34375 715.125 298.34375 712 C 298.34375 708.875 300.875 706.34375 304 706.34375 C 307.125 706.34375 309.65625 708.875 309.65625 712 Z M 309.65625 712 " transform="matrix(1, 0, 0, -1, -207, 809)"/>
<path fill-rule="evenodd" fill="rgb(100%, 54.9%, 0%)" fill-opacity="0.5" stroke-width="0.4" stroke-linecap="butt" stroke-linejoin="round" stroke="rgb(0%, 0%, 0%)" stroke-opacity="1" stroke-miterlimit="10" d="M 245.65625 712 C 245.65625 715.125 243.125 717.65625 240 717.65625 C 236.875 717.65625 234.34375 715.125 234.34375 712 C 234.34375 708.875 236.875 706.34375 240 706.34375 C 243.125 706.34375 245.65625 708.875 245.65625 712 Z M 245.65625 712 " transform="matrix(1, 0, 0, -1, -207, 809)"/>
<g clip-path="url(#clip-2)">
<g fill="rgb(0%, 0%, 0%)" fill-opacity="1">
<use xlink:href="#glyph-1-0" x="6.5095" y="68.21"/>
</g>
</g>
<g clip-path="url(#clip-3)">
<g fill="rgb(0%, 0%, 0%)" fill-opacity="1">
<use xlink:href="#glyph-1-1" x="62.5095" y="68.21"/>
</g>
</g>
<g clip-path="url(#clip-4)">
<g fill="rgb(0%, 0%, 0%)" fill-opacity="1">
<use xlink:href="#glyph-1-2" x="118.5095" y="68.21"/>
</g>
</g>
<path fill="none" stroke-width="0.4" stroke-linecap="butt" stroke-linejoin="round" stroke="rgb(0%, 0%, 100%)" stroke-opacity="1" stroke-miterlimit="10" d="M 265.601563 795.199219 L 244.527344 779.394531 " transform="matrix(1, 0, 0, -1, -207, 809)"/>
<path fill-rule="evenodd" fill="rgb(0%, 0%, 100%)" fill-opacity="1" stroke-width="0.4" stroke-linecap="butt" stroke-linejoin="round" stroke="rgb(0%, 0%, 100%)" stroke-opacity="1" stroke-miterlimit="10" d="M 244.527344 779.394531 L 247.523438 780.394531 L 246.324219 781.992188 Z M 244.527344 779.394531 " transform="matrix(1, 0, 0, -1, -207, 809)"/>
<path fill="none" stroke-width="0.4" stroke-linecap="butt" stroke-linejoin="round" stroke="rgb(0%, 0%, 100%)" stroke-opacity="1" stroke-miterlimit="10" d="M 278.398438 795.199219 L 299.472656 779.394531 " transform="matrix(1, 0, 0, -1, -207, 809)"/>
<path fill-rule="evenodd" fill="rgb(0%, 0%, 100%)" fill-opacity="1" stroke-width="0.4" stroke-linecap="butt" stroke-linejoin="round" stroke="rgb(0%, 0%, 100%)" stroke-opacity="1" stroke-miterlimit="10" d="M 299.472656 779.394531 L 297.675781 781.992188 L 296.476563 780.394531 Z M 299.472656 779.394531 " transform="matrix(1, 0, 0, -1, -207, 809)"/>
<path fill="none" stroke-width="0.4" stroke-linecap="butt" stroke-linejoin="round" stroke="rgb(100%, 0%, 0%)" stroke-opacity="1" stroke-miterlimit="10" d="M 244.527344 708.605469 L 265.601563 692.800781 " transform="matrix(1, 0, 0, -1, -207, 809)"/>
<path fill-rule="evenodd" fill="rgb(100%, 0%, 0%)" fill-opacity="1" stroke-width="0.4" stroke-linecap="butt" stroke-linejoin="round" stroke="rgb(100%, 0%, 0%)" stroke-opacity="1" stroke-miterlimit="10" d="M 265.601563 692.800781 L 263.800781 695.398438 L 262.601563 693.800781 Z M 265.601563 692.800781 " transform="matrix(1, 0, 0, -1, -207, 809)"/>
<path fill="none" stroke-width="0.4" stroke-linecap="butt" stroke-linejoin="round" stroke="rgb(100%, 0%, 0%)" stroke-opacity="1" stroke-miterlimit="10" d="M 299.472656 708.605469 L 278.398438 692.800781 " transform="matrix(1, 0, 0, -1, -207, 809)"/>
<path fill-rule="evenodd" fill="rgb(100%, 0%, 0%)" fill-opacity="1" stroke-width="0.4" stroke-linecap="butt" stroke-linejoin="round" stroke="rgb(100%, 0%, 0%)" stroke-opacity="1" stroke-miterlimit="10" d="M 278.398438 692.800781 L 281.398438 693.800781 L 280.199219 695.398438 Z M 278.398438 692.800781 " transform="matrix(1, 0, 0, -1, -207, 809)"/>
<path fill="none" stroke-width="0.4" stroke-linecap="butt" stroke-linejoin="round" stroke="rgb(100%, 0%, 0%)" stroke-opacity="1" stroke-miterlimit="10" d="M 220.800781 737.601563 L 236.605469 716.527344 " transform="matrix(1, 0, 0, -1, -207, 809)"/>
<path fill-rule="evenodd" fill="rgb(100%, 0%, 0%)" fill-opacity="1" stroke-width="0.4" stroke-linecap="butt" stroke-linejoin="round" stroke="rgb(100%, 0%, 0%)" stroke-opacity="1" stroke-miterlimit="10" d="M 236.605469 716.527344 L 235.605469 719.523438 L 234.007813 718.324219 Z M 236.605469 716.527344 " transform="matrix(1, 0, 0, -1, -207, 809)"/>
<path fill="none" stroke-width="0.4" stroke-linecap="butt" stroke-linejoin="round" stroke="rgb(100%, 0%, 0%)" stroke-opacity="1" stroke-miterlimit="10" d="M 266.34375 738.34375 L 244 716 " transform="matrix(1, 0, 0, -1, -207, 809)"/>
<path fill-rule="evenodd" fill="rgb(100%, 0%, 0%)" fill-opacity="1" stroke-width="0.4" stroke-linecap="butt" stroke-linejoin="round" stroke="rgb(100%, 0%, 0%)" stroke-opacity="1" stroke-miterlimit="10" d="M 244 716 L 246.828125 717.414063 L 245.414063 718.828125 Z M 244 716 " transform="matrix(1, 0, 0, -1, -207, 809)"/>
<path fill="none" stroke-width="0.4" stroke-linecap="butt" stroke-linejoin="round" stroke="rgb(100%, 0%, 0%)" stroke-opacity="1" stroke-miterlimit="10" d="M 277.65625 738.34375 L 300 716 " transform="matrix(1, 0, 0, -1, -207, 809)"/>
<path fill-rule="evenodd" fill="rgb(100%, 0%, 0%)" fill-opacity="1" stroke-width="0.4" stroke-linecap="butt" stroke-linejoin="round" stroke="rgb(100%, 0%, 0%)" stroke-opacity="1" stroke-miterlimit="10" d="M 300 716 L 298.585938 718.828125 L 297.171875 717.414063 Z M 300 716 " transform="matrix(1, 0, 0, -1, -207, 809)"/>
<path fill="none" stroke-width="0.4" stroke-linecap="butt" stroke-linejoin="round" stroke="rgb(100%, 0%, 0%)" stroke-opacity="1" stroke-miterlimit="10" d="M 323.199219 737.601563 L 307.394531 716.527344 " transform="matrix(1, 0, 0, -1, -207, 809)"/>
<path fill-rule="evenodd" fill="rgb(100%, 0%, 0%)" fill-opacity="1" stroke-width="0.4" stroke-linecap="butt" stroke-linejoin="round" stroke="rgb(100%, 0%, 0%)" stroke-opacity="1" stroke-miterlimit="10" d="M 307.394531 716.527344 L 309.992188 718.324219 L 308.394531 719.523438 Z M 307.394531 716.527344 " transform="matrix(1, 0, 0, -1, -207, 809)"/>
<path fill="none" stroke-width="0.4" stroke-linecap="butt" stroke-linejoin="round" stroke="rgb(0%, 0%, 100%)" stroke-opacity="1" stroke-miterlimit="10" d="M 236.605469 771.472656 L 220.800781 750.398438 " transform="matrix(1, 0, 0, -1, -207, 809)"/>
<path fill-rule="evenodd" fill="rgb(0%, 0%, 100%)" fill-opacity="1" stroke-width="0.4" stroke-linecap="butt" stroke-linejoin="round" stroke="rgb(0%, 0%, 100%)" stroke-opacity="1" stroke-miterlimit="10" d="M 220.800781 750.398438 L 223.398438 752.199219 L 221.800781 753.398438 Z M 220.800781 750.398438 " transform="matrix(1, 0, 0, -1, -207, 809)"/>
<path fill="none" stroke-width="0.4" stroke-linecap="butt" stroke-linejoin="round" stroke="rgb(0%, 0%, 100%)" stroke-opacity="1" stroke-miterlimit="10" d="M 244 772 L 266.34375 749.65625 " transform="matrix(1, 0, 0, -1, -207, 809)"/>
<path fill-rule="evenodd" fill="rgb(0%, 0%, 100%)" fill-opacity="1" stroke-width="0.4" stroke-linecap="butt" stroke-linejoin="round" stroke="rgb(0%, 0%, 100%)" stroke-opacity="1" stroke-miterlimit="10" d="M 266.34375 749.65625 L 264.929688 752.484375 L 263.515625 751.070313 Z M 266.34375 749.65625 " transform="matrix(1, 0, 0, -1, -207, 809)"/>
<path fill="none" stroke-width="0.4" stroke-linecap="butt" stroke-linejoin="round" stroke="rgb(0%, 0%, 100%)" stroke-opacity="1" stroke-miterlimit="10" d="M 300 772 L 277.65625 749.65625 " transform="matrix(1, 0, 0, -1, -207, 809)"/>
<path fill-rule="evenodd" fill="rgb(0%, 0%, 100%)" fill-opacity="1" stroke-width="0.4" stroke-linecap="butt" stroke-linejoin="round" stroke="rgb(0%, 0%, 100%)" stroke-opacity="1" stroke-miterlimit="10" d="M 277.65625 749.65625 L 280.484375 751.070313 L 279.070313 752.484375 Z M 277.65625 749.65625 " transform="matrix(1, 0, 0, -1, -207, 809)"/>
<path fill="none" stroke-width="0.4" stroke-linecap="butt" stroke-linejoin="round" stroke="rgb(0%, 0%, 100%)" stroke-opacity="1" stroke-miterlimit="10" d="M 307.394531 771.472656 L 323.199219 750.398438 " transform="matrix(1, 0, 0, -1, -207, 809)"/>
<path fill-rule="evenodd" fill="rgb(0%, 0%, 100%)" fill-opacity="1" stroke-width="0.4" stroke-linecap="butt" stroke-linejoin="round" stroke="rgb(0%, 0%, 100%)" stroke-opacity="1" stroke-miterlimit="10" d="M 323.199219 750.398438 L 322.199219 753.398438 L 320.601563 752.199219 Z M 323.199219 750.398438 " transform="matrix(1, 0, 0, -1, -207, 809)"/>
<path fill="none" stroke-width="0.4" stroke-linecap="butt" stroke-linejoin="round" stroke="rgb(0%, 0%, 0%)" stroke-opacity="1" stroke-miterlimit="10" d="M 269.84375 792.296875 C 262.472656 770.578125 245.421875 753.527344 223.703125 746.15625 " transform="matrix(1, 0, 0, -1, -207, 809)"/>
<path fill-rule="evenodd" fill="rgb(0%, 0%, 0%)" fill-opacity="1" stroke-width="0.4" stroke-linecap="butt" stroke-linejoin="round" stroke="rgb(0%, 0%, 0%)" stroke-opacity="1" stroke-miterlimit="10" d="M 223.703125 746.15625 L 226.867188 746.175781 L 226.222656 748.066406 Z M 223.703125 746.15625 " transform="matrix(1, 0, 0, -1, -207, 809)"/>
<path fill="none" stroke-width="0.4" stroke-linecap="butt" stroke-linejoin="round" stroke="rgb(0%, 0%, 0%)" stroke-opacity="1" stroke-miterlimit="10" d="M 272 792 L 272 752 " transform="matrix(1, 0, 0, -1, -207, 809)"/>
<path fill-rule="evenodd" fill="rgb(0%, 0%, 0%)" fill-opacity="1" stroke-width="0.4" stroke-linecap="butt" stroke-linejoin="round" stroke="rgb(0%, 0%, 0%)" stroke-opacity="1" stroke-miterlimit="10" d="M 272 752 L 273 755 L 271 755 Z M 272 752 " transform="matrix(1, 0, 0, -1, -207, 809)"/>
<path fill="none" stroke-width="0.4" stroke-linecap="butt" stroke-linejoin="round" stroke="rgb(0%, 0%, 0%)" stroke-opacity="1" stroke-miterlimit="10" d="M 274.15625 792.296875 C 281.527344 770.578125 298.578125 753.527344 320.296875 746.15625 " transform="matrix(1, 0, 0, -1, -207, 809)"/>
<path fill-rule="evenodd" fill="rgb(0%, 0%, 0%)" fill-opacity="1" stroke-width="0.4" stroke-linecap="butt" stroke-linejoin="round" stroke="rgb(0%, 0%, 0%)" stroke-opacity="1" stroke-miterlimit="10" d="M 320.296875 746.15625 L 317.777344 748.066406 L 317.132813 746.175781 Z M 320.296875 746.15625 " transform="matrix(1, 0, 0, -1, -207, 809)"/>
<path fill="none" stroke-width="0.4" stroke-linecap="butt" stroke-linejoin="round" stroke="rgb(0%, 0%, 0%)" stroke-opacity="1" stroke-miterlimit="10" d="M 223.703125 741.84375 C 245.421875 734.472656 262.472656 717.421875 269.84375 695.703125 " transform="matrix(1, 0, 0, -1, -207, 809)"/>
<path fill-rule="evenodd" fill="rgb(0%, 0%, 0%)" fill-opacity="1" stroke-width="0.4" stroke-linecap="butt" stroke-linejoin="round" stroke="rgb(0%, 0%, 0%)" stroke-opacity="1" stroke-miterlimit="10" d="M 269.84375 695.703125 L 269.824219 698.867188 L 267.933594 698.222656 Z M 269.84375 695.703125 " transform="matrix(1, 0, 0, -1, -207, 809)"/>
<path fill="none" stroke-width="0.4" stroke-linecap="butt" stroke-linejoin="round" stroke="rgb(0%, 0%, 0%)" stroke-opacity="1" stroke-miterlimit="10" d="M 272 736 L 272 696 " transform="matrix(1, 0, 0, -1, -207, 809)"/>
<path fill-rule="evenodd" fill="rgb(0%, 0%, 0%)" fill-opacity="1" stroke-width="0.4" stroke-linecap="butt" stroke-linejoin="round" stroke="rgb(0%, 0%, 0%)" stroke-opacity="1" stroke-miterlimit="10" d="M 272 696 L 273 699 L 271 699 Z M 272 696 " transform="matrix(1, 0, 0, -1, -207, 809)"/>
<path fill="none" stroke-width="0.4" stroke-linecap="butt" stroke-linejoin="round" stroke="rgb(0%, 0%, 0%)" stroke-opacity="1" stroke-miterlimit="10" d="M 320.296875 741.84375 C 298.578125 734.472656 281.527344 717.421875 274.15625 695.703125 " transform="matrix(1, 0, 0, -1, -207, 809)"/>
<path fill-rule="evenodd" fill="rgb(0%, 0%, 0%)" fill-opacity="1" stroke-width="0.4" stroke-linecap="butt" stroke-linejoin="round" stroke="rgb(0%, 0%, 0%)" stroke-opacity="1" stroke-miterlimit="10" d="M 274.15625 695.703125 L 276.066406 698.222656 L 274.175781 698.867188 Z M 274.15625 695.703125 " transform="matrix(1, 0, 0, -1, -207, 809)"/>
<g clip-path="url(#clip-5)">
<g fill="rgb(0%, 0%, 0%)" fill-opacity="1">
<use xlink:href="#glyph-2-0" x="45.200243" y="38.083643"/>
</g>
</g>
<g clip-path="url(#clip-6)">
<g fill="rgb(0%, 0%, 0%)" fill-opacity="1">
<use xlink:href="#glyph-2-0" x="59.234487" y="42.840642"/>
</g>
</g>
<g clip-path="url(#clip-7)">
<g fill="rgb(0%, 0%, 0%)" fill-opacity="1">
<use xlink:href="#glyph-2-1" x="82.308355" y="40.224018"/>
</g>
</g>
<g clip-path="url(#clip-8)">
<g fill="rgb(0%, 0%, 0%)" fill-opacity="1">
<use xlink:href="#glyph-2-2" x="34.257621" y="85.182378"/>
</g>
</g>
<g clip-path="url(#clip-9)">
<g fill="rgb(0%, 0%, 0%)" fill-opacity="1">
<use xlink:href="#glyph-2-0" x="59.472362" y="89.939876"/>
</g>
</g>
<g clip-path="url(#clip-10)">
<g fill="rgb(0%, 0%, 0%)" fill-opacity="1">
<use xlink:href="#glyph-2-1" x="93.488476" y="84.944503"/>
</g>
</g>
<g clip-path="url(#clip-11)">
<g fill="rgb(100%, 0%, 0%)" fill-opacity="1">
<use xlink:href="#glyph-3-0" x="13.087128" y="86.372252"/>
</g>
</g>
<g clip-path="url(#clip-12)">
<g fill="rgb(100%, 0%, 0%)" fill-opacity="1">
<use xlink:href="#glyph-3-0" x="44.724367" y="75.668755"/>
</g>
</g>
<g clip-path="url(#clip-13)">
<g fill="rgb(100%, 0%, 0%)" fill-opacity="1">
<use xlink:href="#glyph-3-0" x="79.691981" y="78.047505"/>
</g>
</g>
<g clip-path="url(#clip-14)">
<g fill="rgb(100%, 0%, 0%)" fill-opacity="1">
<use xlink:href="#glyph-3-0" x="112.280845" y="82.091378"/>
</g>
</g>
<g clip-path="url(#clip-15)">
<g fill="rgb(100%, 0%, 0%)" fill-opacity="1">
<use xlink:href="#glyph-4-0" x="41.394118" y="113.015118"/>
</g>
</g>
<g clip-path="url(#clip-16)">
<g fill="rgb(100%, 0%, 0%)" fill-opacity="1">
<use xlink:href="#glyph-4-1" x="83.49798" y="113.966618"/>
</g>
</g>
<g clip-path="url(#clip-17)">
<g fill="rgb(0%, 0%, 100%)" fill-opacity="1">
<use xlink:href="#glyph-3-0" x="12.610504" y="46.885515"/>
</g>
</g>
<g clip-path="url(#clip-18)">
<g fill="rgb(0%, 0%, 100%)" fill-opacity="1">
<use xlink:href="#glyph-3-0" x="43.295993" y="55.448887"/>
</g>
</g>
<g clip-path="url(#clip-19)">
<g fill="rgb(0%, 0%, 100%)" fill-opacity="1">
<use xlink:href="#glyph-3-0" x="79.215106" y="55.924637"/>
</g>
</g>
<g clip-path="url(#clip-20)">
<g fill="rgb(0%, 0%, 100%)" fill-opacity="1">
<use xlink:href="#glyph-3-0" x="108.949471" y="43.793016"/>
</g>
</g>
<g clip-path="url(#clip-21)">
<g fill="rgb(0%, 0%, 100%)" fill-opacity="1">
<use xlink:href="#glyph-4-2" x="43.058118" y="19.767649"/>
</g>
</g>
<g clip-path="url(#clip-22)">
<g fill="rgb(0%, 0%, 100%)" fill-opacity="1">
<use xlink:href="#glyph-4-3" x="83.020954" y="19.529749"/>
</g>
</g>
</svg>
